<svg width="100" height="100" viewBox="0 0 100 100" fill="none" xmlns="http://www.w3.org/2000/svg">
<path d="M15.1728 29.6654C17.2825 30.5512 19.3802 31.4644 21.487 32.3566C21.8542 32.5121 21.9491 32.704 21.7823 33.0649C20.9698 34.8231 21.3196 34.508 19.7949 33.9125C19.1945 33.6782 18.6087 33.4088 17.8316 33.0767C18.3113 33.7938 18.6905 34.3508 19.0589 34.9144C19.5304 35.6351 19.1992 36.3855 18.3299 36.5401C17.6413 36.6627 16.9466 36.7518 16.0622 36.8849C17.043 37.3046 17.8532 37.6805 18.6873 37.9979C19.2265 38.2031 19.3802 38.4292 19.1037 38.9876C18.4181 40.3725 18.7149 40.2838 17.2604 39.6736C15.55 38.9563 13.8457 38.2245 12.1516 37.4716C11.8586 37.3413 11.3793 37.0112 11.4139 36.884C11.5591 36.3524 11.6272 35.6978 12.4098 35.5772C13.651 35.3858 14.8873 35.1651 16.125 34.9537C16.2613 34.9302 16.3934 34.8853 16.6201 34.8265C16.366 34.4198 16.1512 34.0631 15.9237 33.7144C15.4446 32.979 14.9563 32.2492 14.4767 31.5141C14.0782 30.9036 14.1108 30.2233 14.612 29.7282C14.7173 29.6239 15.018 29.6004 15.1728 29.6654ZM22.826 20.907C25.0919 20.9046 27.0922 22.9157 27.0865 25.1898C27.0805 27.5427 25.0083 29.6325 22.6848 29.6292C20.3882 29.6259 18.3864 27.6532 18.3785 25.3857C18.3702 23.0064 20.4522 20.9097 22.826 20.907ZM22.5967 23.1444C21.479 23.1576 20.5333 24.0909 20.5339 25.1799C20.5348 26.3724 21.6604 27.4632 22.8668 27.4401C23.9834 27.4188 24.9068 26.4849 24.9056 25.3782C24.9041 24.1209 23.8788 23.1291 22.5967 23.1444ZM31.7916 13.4745C33.1427 15.6199 34.4636 17.7837 35.7894 19.9446C35.8002 19.9625 35.7906 19.9929 35.7906 20.0409C35.1091 20.6847 34.4131 21.0285 33.3866 20.6278C32.0926 20.1228 30.7266 19.7975 29.2595 19.5272C29.7859 20.3787 30.3277 21.2219 30.8294 22.0877C30.9753 22.3397 31.1521 22.8477 31.0654 22.9123C30.5761 23.2767 30.0204 23.5633 29.4583 23.8127C29.3924 23.8416 29.118 23.4957 28.9905 23.2931C27.8627 21.5031 26.7358 19.7125 25.6376 17.9053C25.4657 17.6226 25.2677 17.0484 25.3756 16.9606C25.8105 16.6066 26.2263 16.0691 26.9395 16.2985C28.2764 16.7285 29.6157 17.1506 30.9551 17.5728C31.2111 17.6535 31.4718 17.7197 31.943 17.8526C31.2836 16.7985 30.7608 15.8829 30.1564 15.0234C29.7409 14.4326 29.7838 14.0617 30.4628 13.7697C30.7139 13.6619 30.9237 13.4423 31.1802 13.3708C31.3661 13.3189 31.716 13.3547 31.7916 13.4745ZM41.2938 10.3379C41.3356 10.5538 41.4142 10.7645 41.4933 10.9712C41.6612 11.4093 41.5375 11.6441 41.0552 11.7738C39.9984 12.0588 38.9549 12.3929 37.8169 12.7335L37.9641 13.2853C38.0138 13.4715 38.0655 13.6653 38.1235 13.8826C39.0804 13.6115 39.9918 13.383 40.881 13.0903C41.3859 12.9242 41.5866 13.0424 41.7334 13.5447C42.0722 14.7045 42.099 14.6956 40.9394 15.0463C40.2268 15.2615 39.5158 15.4805 38.7088 15.7268C38.831 16.1286 38.9215 16.4263 39.0353 16.8006C40.1155 16.4857 41.1548 16.2285 42.1592 15.8752C42.9271 15.6053 43.0523 16.0437 43.1985 16.5859C43.3351 17.0927 43.5827 17.5332 42.7456 17.7434C41.1978 18.1321 39.6747 18.6196 38.1509 19.0956C37.628 19.2588 37.3906 19.1337 37.2362 18.6069C36.6073 16.4579 35.9493 14.3172 35.2807 12.1801C35.1332 11.7082 35.2078 11.4714 35.7329 11.3257C37.3195 10.8852 38.8938 10.4006 40.4691 9.92109C40.9023 9.78923 41.1972 9.83949 41.2938 10.3379ZM32.6265 80.3661C32.8083 80.2159 33.2408 80.1668 33.433 80.2817C33.8731 80.5448 34.6744 80.5148 34.6318 81.2588C34.4763 83.9652 34.2579 86.6678 34.0525 89.522C33.4117 89.1975 32.9108 89.0009 32.4815 88.6993C32.305 88.5752 32.1652 88.2002 32.2123 87.9847C32.3609 87.3068 32.1369 86.9409 31.5089 86.6937C30.9477 86.4726 30.4144 86.169 29.8916 85.8621C29.5368 85.654 29.2531 85.6684 29.0073 85.9932C28.5631 86.5805 28.0715 86.5473 27.5108 86.166C27.2167 85.9658 26.8832 85.8242 26.506 85.6234C26.6458 85.4605 26.7221 85.3436 26.8237 85.2571C28.7519 83.6195 30.6754 81.9755 32.6265 80.3661ZM32.5222 82.8291C31.9761 83.3226 31.43 83.8159 30.8166 84.37C31.4009 84.6683 31.8692 84.9076 32.4611 85.2101C32.5496 84.3594 32.6277 83.6122 32.7054 82.865C32.6446 82.8529 32.5834 82.8412 32.5222 82.8291ZM24.1019 72.8921C24.4534 73.2498 24.8382 73.5746 25.3014 73.9988C24.411 75.0228 23.5803 75.9724 22.7571 76.9286C22.5101 77.2158 22.2594 77.5049 22.0539 77.8223C21.5661 78.5756 21.6479 79.3032 22.2534 79.8871C22.8419 80.4551 23.6457 80.5519 24.3202 80.0355C24.7755 79.6872 25.1554 79.2321 25.5423 78.8002C26.2804 77.9768 26.9997 77.1356 27.7766 76.2449C28.3306 76.7339 28.8144 77.1609 29.4087 77.6853C28.1069 79.0871 26.9356 80.5204 25.5838 81.7517C24.4164 82.8154 22.9209 82.7537 21.5864 81.8924C19.2459 80.3822 18.879 78.0778 20.6594 75.9336C21.4998 74.9209 22.3887 73.9488 23.2358 72.9412C23.5327 72.5884 23.7755 72.56 24.1019 72.8921ZM21.5139 69.1053C22.2449 70.804 21.7679 72.5918 20.6032 73.4096C20.2335 72.8599 19.8656 72.3643 19.5639 71.8317C19.4766 71.6778 19.5412 71.4073 19.6022 71.2102C19.8798 70.3083 19.5929 69.4447 18.7906 68.847C18.0935 68.3281 16.9849 68.3639 16.1794 68.9314C15.4082 69.4751 15.0908 70.351 15.3484 71.2254C15.6344 72.1973 16.3666 72.7809 17.4504 72.8158C17.1622 72.3565 16.9251 71.9313 16.6409 71.5394C16.3766 71.175 16.4325 70.9498 16.8025 70.6895C17.7796 70.0023 17.7682 69.988 18.4384 70.9948C19.0425 71.902 19.649 72.8074 20.2988 73.7806C19.048 74.5989 17.8847 75.3737 16.6998 76.1139C16.5763 76.1911 16.209 76.127 16.1488 76.0211C15.9353 75.6439 15.793 75.224 15.6571 74.8094C15.636 74.7447 15.7885 74.6239 15.912 74.4611C14.7029 74.1041 13.8692 73.338 13.508 72.2363C13.2467 71.4386 13.0724 70.5245 13.1923 69.7101C13.472 67.8092 15.1735 66.4505 17.2103 66.2748C18.9271 66.1269 20.7564 67.3455 21.5139 69.1053ZM63.0688 80.7998C63.8574 83.3666 64.6296 85.8809 65.4017 88.3952C64.5446 88.9105 63.8207 89.0053 62.9844 88.4062C61.818 87.5701 60.5594 86.8669 59.1577 85.9932C59.5995 87.4511 59.9766 88.6956 60.392 90.0674C59.7584 90.2692 59.168 90.4573 58.4535 90.685C57.6666 88.1275 56.8933 85.6141 56.1132 83.0789C56.9462 82.644 57.6278 82.4449 58.4576 83.0613C59.6539 83.9502 60.9609 84.6865 62.3875 85.5941C61.9439 84.1201 61.5548 82.8279 61.1306 81.4192C61.7633 81.2168 62.3537 81.0281 63.0688 80.7998ZM70.3452 77.3109C70.6724 77.8437 70.9661 78.3224 71.3088 78.8807C70.5883 79.3404 69.9097 79.7738 69.1788 80.2402C70.2414 82.0059 71.2765 83.7254 72.3681 85.5396C71.7846 85.8943 71.2457 86.222 70.6003 86.6146C69.5224 84.8412 68.4714 83.112 67.3819 81.3194C66.6569 81.7519 65.9819 82.1548 65.2118 82.6145C64.8867 82.0829 64.5849 81.5896 64.2407 81.0267C66.2959 79.7757 68.2839 78.5656 70.3452 77.3109ZM75.776 72.0775C76.2525 72.6015 76.6153 73.0009 76.9733 73.3945C76.0935 74.3283 75.1976 75.2795 74.2523 76.2829C74.5945 76.6675 74.8671 76.9736 75.1895 77.3358C76.018 76.4973 76.7994 75.7068 77.5889 74.9078C78.0505 75.3278 78.4489 75.6902 78.8302 76.037C77.9935 76.9487 77.2389 77.7709 76.4252 78.6577C76.6978 78.9734 76.9491 79.2645 77.2523 79.6159C78.2119 78.6537 79.1336 77.729 80.0772 76.7829C80.5027 77.2124 80.8813 77.5946 81.0761 77.7915C79.7458 79.3872 78.4591 80.9304 77.1139 82.5442C75.2131 80.459 73.4395 78.5131 71.7876 76.7007C73.1351 75.1388 74.4451 73.62 75.776 72.0775ZM79.7404 65.6812C80.2498 66.0169 80.6896 66.3069 81.2163 66.6545C80.4887 67.7534 79.7877 68.8119 79.0551 69.9181C79.4296 70.1732 79.7424 70.3867 80.1256 70.6477C80.7705 69.7023 81.3915 68.7921 82.0519 67.8247C82.5386 68.1426 82.9752 68.428 83.4937 68.7666C82.8549 69.7314 82.2473 70.6482 81.6024 71.6218C81.9488 71.8484 82.2447 72.0418 82.6349 72.2969C83.3681 71.2123 84.0779 70.1619 84.8215 69.0615C85.3274 69.3917 85.7661 69.6779 86.3009 70.0266C85.191 71.6896 84.1115 73.3074 82.9922 74.9849C80.7884 73.5242 78.6517 72.1076 76.4319 70.6363C77.5669 68.9361 78.6383 67.3319 79.7404 65.6812ZM87.8869 37.9553C86.6931 37.5526 85.4875 37.1812 84.3105 36.7328C83.7646 36.5251 83.5094 36.6703 83.234 37.149C82.4594 38.4953 81.6342 39.8121 80.8255 41.1385C80.8041 41.1734 80.7414 41.1832 80.5894 41.2589C80.3137 40.5835 80.0091 39.9246 79.7867 39.2387C79.7237 39.0447 79.8583 38.7484 79.9744 38.5394C80.4663 37.6519 80.9851 36.78 81.4889 35.9112C80.4572 35.1316 79.4599 35.3305 78.4038 35.9299C78.1227 35.2447 77.8762 34.645 77.5929 33.9548C80.1242 32.8982 82.5937 31.8672 85.1689 30.7922C85.4391 31.4425 85.6864 32.0379 85.9816 32.7486C84.8935 33.2114 83.8621 33.6499 82.6811 34.1519C83.9462 34.5864 85.0321 35.0124 86.1491 35.325C86.9356 35.545 87.4358 35.9468 87.6365 36.7518C87.7264 37.1125 87.9046 37.4509 88.0425 37.7993C87.9908 37.8514 87.9387 37.9035 87.8869 37.9553ZM80.6695 24.1665C82.0386 25.7756 81.9888 27.9962 80.4876 29.3311C80.1548 28.9234 79.8188 28.5829 79.5767 28.1852C79.4604 27.9942 79.4334 27.6594 79.517 27.4507C79.8953 26.5067 79.704 25.6517 78.9173 25.0507C78.1741 24.4831 77.1438 24.5246 76.3605 25.1541C75.5607 25.7969 75.2927 26.7706 75.6806 27.6264C76.0956 28.5416 76.8957 28.9815 77.8745 28.7335C78.2807 28.6308 78.4899 28.7429 78.7044 29.0399C78.9639 29.3986 79.245 29.7413 79.5156 30.0895C78.0405 31.2773 75.885 30.9191 74.5665 29.3183C73.0235 27.445 73.2173 25.1168 75.0451 23.5763C76.7425 22.1454 79.1666 22.3997 80.6695 24.1665ZM72.5572 15.9585C72.9231 16.3301 73.6694 16.4154 73.5062 17.2075C72.9613 19.8518 72.3952 22.4915 71.8342 25.1321C71.8141 25.2269 71.7624 25.3141 71.663 25.5588C71.1072 25.1452 70.5847 24.8338 70.1679 24.4062C70.0128 24.2467 70.0246 23.792 70.0995 23.5147C70.2435 22.9847 70.1228 22.6457 69.6856 22.369C69.3384 22.1496 69 21.9018 68.6958 21.6205C68.1015 21.0703 67.5307 20.7622 66.8474 21.4882C66.7472 21.5952 66.4211 21.5942 66.2804 21.5028C65.7981 21.1898 65.3517 20.814 64.8212 20.4083C65.0174 20.2169 65.132 20.0645 65.2791 19.9673L69.457 17.2215L71.5395 15.8378C71.9537 15.5596 72.2613 15.6583 72.5572 15.9585ZM71.2801 18.4126C70.5698 18.9146 70.0137 19.3072 69.3659 19.7643C69.8715 20.1231 70.2538 20.394 70.7326 20.7335C70.77 20.5749 70.8063 20.4212 70.842 20.2699L71.054 19.3713C71.1255 19.0683 71.1993 18.7553 71.2801 18.4126ZM59.6099 10.8009C59.7525 10.3911 59.9953 10.3828 60.3432 10.5198C61.4137 10.9406 62.5001 11.3183 63.5663 11.7502C64.4954 12.1267 65.2809 12.704 65.39 13.8334C65.4933 14.9019 64.9072 15.5977 63.9865 16.1064C64.6656 17.0229 64.7258 17.912 64.1329 18.7892C63.5387 19.6685 62.6444 19.9131 61.7171 19.6352C60.2998 19.2104 58.9164 18.6582 57.5339 18.1176C57.3915 18.0619 57.2314 17.6743 57.2848 17.5153C58.0396 15.2697 58.8321 13.0379 59.6099 10.8009ZM60.1486 15.7284C59.985 16.1996 59.859 16.5627 59.7072 17C60.3877 17.2427 60.9999 17.5302 61.6413 17.6565C61.9028 17.708 62.2285 17.4104 62.5247 17.2713C62.3626 17.0045 62.2593 16.6208 62.0265 16.4936C61.4639 16.1871 60.8411 16.0004 60.1486 15.7284ZM61.854 13.0364C61.3569 12.7835 61.0498 12.8913 60.9281 13.4739C60.8891 13.6622 60.823 13.8442 60.7404 14.1289C61.3532 14.3303 61.9235 14.5775 62.5167 14.6821C62.7371 14.7208 63.1478 14.4762 63.2219 14.2656C63.2902 14.0717 63.0879 13.6622 62.8892 13.5064C62.5971 13.2773 62.1932 13.2088 61.854 13.0364ZM46.7174 16.8222C46.6684 16.4363 46.5628 16.0968 46.5956 15.7713C46.6972 14.7613 46.3037 13.9436 45.7744 13.1353C45.0855 12.0835 44.4505 10.9952 43.7991 9.91827C43.6544 9.67889 43.5378 9.42171 43.3415 9.04542C44.106 9.00397 44.739 8.92778 45.3665 8.96106C45.5596 8.97127 45.7819 9.25093 45.9143 9.45791C46.4459 10.289 46.9474 11.1397 47.5346 12.1062C47.9911 11.2045 48.435 10.4344 48.7767 9.61992C49.0608 8.94296 49.4649 8.62067 50.1995 8.71059C50.5714 8.75613 50.9534 8.71847 51.4689 8.71847C51.3342 9.05126 51.2553 9.28859 51.1451 9.50987C50.4102 10.9838 49.6022 12.4256 48.9615 13.9404C48.7082 14.54 48.7643 15.3013 48.7859 15.9856C48.8054 16.6231 48.6088 16.8862 47.9733 16.8289C47.5743 16.7927 47.1696 16.8222 46.7174 16.8222ZM42.4902 86.3379C42.3684 86.866 41.9618 87.087 41.4683 87.0458C40.9317 87.0013 40.4017 86.8774 39.753 86.7687C39.9065 86.0571 40.0319 85.4761 40.1794 84.7937C40.7891 84.9544 41.3449 85.0573 41.8681 85.2522C42.3284 85.4235 42.6139 85.8028 42.4902 86.3379ZM42.9831 88.6575C44.0086 88.1417 44.4915 87.2606 44.5024 86.1301C44.5135 84.9915 43.9435 84.1034 42.9325 83.7395C41.5572 83.2445 40.1136 82.9481 38.6155 82.5442C38.0486 85.1946 37.5122 87.7007 36.9556 90.3023C37.6188 90.4522 38.2069 90.5852 38.8641 90.7336C39.0469 89.9738 39.213 89.2829 39.3681 88.6376C40.1565 88.5605 40.5771 88.867 40.7917 89.5503C40.9366 90.0106 41.1566 90.4487 41.3712 90.8824C41.4626 91.0668 41.5984 91.3132 41.7615 91.3608C42.409 91.5487 43.0754 91.6691 43.884 91.848C43.4037 90.7579 42.9971 89.8356 42.5793 88.8875C42.7393 88.7957 42.8582 88.72 42.9831 88.6575ZM50.0492 88.5603C50.3088 87.8269 50.5557 87.1303 50.8809 86.2116C51.2675 87.079 51.5663 87.7488 51.9284 88.5603H50.0492ZM51.9359 84.1095C51.587 83.3959 50.9109 83.8539 50.3963 83.8306C50.1457 83.8196 49.7363 84.0783 49.6428 84.3084C48.6939 86.6516 47.7939 89.0136 46.8864 91.3725C46.8396 91.4937 46.8501 91.6362 46.8247 91.848C47.4531 91.8153 48.0226 91.8075 48.5854 91.7428C48.7425 91.7244 48.9924 91.5528 49.0077 91.4296C49.139 90.3574 49.9042 90.3285 50.7427 90.3606C51.1144 90.3746 51.4929 90.3533 51.86 90.298C52.4643 90.2067 52.8392 90.3839 53.0358 90.9841C53.1119 91.2154 53.3739 91.5231 53.5867 91.5525C54.1609 91.6312 54.754 91.5793 55.5327 91.5793C54.2595 88.9291 53.1113 86.5129 51.9359 84.1095Z" fill="#080808"/>
<path d="M12.8259 45.3783C12.7223 46.6844 12.6334 47.7654 12.5511 48.8471C12.2428 52.9049 12.697 56.8778 13.6401 60.798C13.7063 61.0724 13.7908 61.4188 13.6936 61.6385C13.6172 61.8117 13.2723 61.9108 13.0494 61.9058C12.9361 61.9031 12.7748 61.6148 12.7263 61.4271C11.622 57.135 11.1796 52.7664 11.5294 48.3132C11.6026 47.3799 11.6947 46.4463 11.836 45.5236C11.8659 45.3284 12.1523 45.0419 12.3158 45.0454C12.5244 45.0505 12.7279 45.3077 12.8259 45.3783Z" fill="#080808" stroke="#080808" stroke-width="0.168804"/>
<path d="M85.0485 45.245C85.6911 44.8909 85.9642 44.979 86.063 45.744C86.7452 51.0193 86.4214 56.214 85.1313 61.3422C85.0953 61.4848 85.0488 61.6248 84.999 61.7624C84.9835 61.8046 84.9408 61.8347 84.8809 61.9059C84.7759 61.8862 84.6444 61.8761 84.5209 61.8353C84.3956 61.7942 84.2781 61.7227 84.0859 61.6304C85.5254 56.25 85.8278 50.7862 85.0485 45.245Z" fill="#080808" stroke="#080808" stroke-width="0.168804"/>
<path d="M58.0256 31.522V44.8078C58.0256 49.0991 54.1794 52.7793 49.7169 52.7793C45.2545 52.7793 41.4082 49.0991 41.4082 44.8078V31.522H35.8691V44.8078V44.841C35.8691 52.1786 42.069 58.1269 49.7169 58.1269C57.3648 58.1269 63.5647 52.1786 63.5647 44.841V44.8078V31.522H58.0256Z" fill="#080808"/>
<rect x="35.8691" y="62.8262" width="27.6215" height="5.5243" fill="#080808"/>
</svg>
