<svg width="178" height="31" viewBox="0 0 178 31" fill="none" xmlns="http://www.w3.org/2000/svg">
<path d="M39.6406 1H5.64857C3.21499 1 1.24219 2.98799 1.24219 5.4403V25.7388C1.24219 28.1911 3.21499 30.1791 5.64857 30.1791H39.6406C42.0742 30.1791 44.047 28.1911 44.047 25.7388V5.4403C44.047 2.98799 42.0742 1 39.6406 1Z" fill="white" stroke="#D9D9D9" stroke-width="1.26866"/>
<path fill-rule="evenodd" clip-rule="evenodd" d="M22.9602 22.1319C21.4601 23.4365 19.5142 24.2241 17.3878 24.2241C12.6432 24.2241 8.79688 20.3031 8.79688 15.4665C8.79688 10.6299 12.6432 6.70898 17.3878 6.70898C19.5142 6.70898 21.4601 7.4965 22.9602 8.80104C24.4604 7.4965 26.4063 6.70898 28.5327 6.70898C33.2773 6.70898 37.1236 10.6299 37.1236 15.4665C37.1236 20.3031 33.2773 24.2241 28.5327 24.2241C26.4063 24.2241 24.4604 23.4365 22.9602 22.1319Z" fill="#ED0006"/>
<path fill-rule="evenodd" clip-rule="evenodd" d="M22.959 22.1319C24.8061 20.5257 25.9774 18.1355 25.9774 15.4665C25.9774 12.7975 24.8061 10.4073 22.959 8.80104C24.4592 7.4965 26.405 6.70898 28.5314 6.70898C33.2761 6.70898 37.1223 10.6299 37.1223 15.4665C37.1223 20.3031 33.2761 24.2241 28.5314 24.2241C26.405 24.2241 24.4592 23.4365 22.959 22.1319Z" fill="#F9A000"/>
<path fill-rule="evenodd" clip-rule="evenodd" d="M22.9598 8.80078C24.8069 10.4071 25.9781 12.7972 25.9781 15.4662C25.9781 18.1352 24.8069 20.5254 22.9598 22.1316C21.1126 20.5254 19.9414 18.1352 19.9414 15.4662C19.9414 12.7972 21.1126 10.4071 22.9598 8.80078Z" fill="#FF5E00"/>
<path d="M106.262 1H72.2697C69.8361 1 67.8633 2.98799 67.8633 5.4403V25.7388C67.8633 28.1911 69.8361 30.1791 72.2697 30.1791H106.262C108.695 30.1791 110.668 28.1911 110.668 25.7388V5.4403C110.668 2.98799 108.695 1 106.262 1Z" fill="white" stroke="#D9D9D9" stroke-width="1.26866"/>
<path fill-rule="evenodd" clip-rule="evenodd" d="M80.6119 20.9914H77.9425L75.9407 13.296C75.8457 12.942 75.644 12.629 75.3472 12.4815C74.6067 12.1109 73.7906 11.8159 72.9004 11.6671V11.3708H77.2006C77.7941 11.3708 78.2392 11.8159 78.3134 12.3327L79.352 17.8837L82.0201 11.3708H84.6153L80.6119 20.9914ZM86.0991 20.9914H83.5781L85.654 11.3708H88.175L86.0991 20.9914ZM91.4366 14.036C91.5108 13.5179 91.956 13.2215 92.4752 13.2215C93.2912 13.1472 94.1802 13.296 94.9221 13.6653L95.3671 11.594C94.6254 11.2977 93.8093 11.1489 93.0688 11.1489C90.6218 11.1489 88.8414 12.4815 88.8414 14.331C88.8414 15.738 90.1025 16.4768 90.9927 16.9218C91.956 17.3656 92.3269 17.662 92.2527 18.1056C92.2527 18.7713 91.5108 19.0676 90.7703 19.0676C89.8799 19.0676 88.9897 18.8457 88.175 18.475L87.7299 20.5478C88.6201 20.9171 89.5832 21.0659 90.4735 21.0659C93.2171 21.139 94.9221 19.8076 94.9221 17.8094C94.9221 15.293 91.4366 15.1454 91.4366 14.036ZM103.745 20.9914L101.743 11.3708H99.5932C99.1481 11.3708 98.703 11.6671 98.5546 12.1109L94.8478 20.9914H97.443L97.9611 19.5857H101.15L101.447 20.9914H103.745ZM99.9641 13.9617L100.705 17.5875H98.6287L99.9641 13.9617Z" fill="#172B85"/>
<path d="M172.885 1H138.893C136.459 1 134.486 2.98799 134.486 5.4403V25.7388C134.486 28.1911 136.459 30.1791 138.893 30.1791H172.885C175.318 30.1791 177.291 28.1911 177.291 25.7388V5.4403C177.291 2.98799 175.318 1 172.885 1Z" fill="white" stroke="#D9D9D9" stroke-width="1.26866"/>
<path fill-rule="evenodd" clip-rule="evenodd" d="M146.32 19.7007H144.362C144.228 19.7007 144.114 19.7989 144.093 19.9322L143.301 24.9929C143.285 25.0929 143.362 25.1828 143.462 25.1828H144.397C144.531 25.1828 144.645 25.0846 144.666 24.9511L144.88 23.5862C144.901 23.4525 145.015 23.3545 145.149 23.3545H145.769C147.059 23.3545 147.803 22.7254 147.998 21.4787C148.085 20.9333 148.001 20.5048 147.748 20.2046C147.47 19.8751 146.976 19.7007 146.32 19.7007ZM146.546 21.5491C146.439 22.2573 145.902 22.2573 145.383 22.2573H145.088L145.295 20.9347C145.307 20.8548 145.376 20.7959 145.456 20.7959H145.592C145.945 20.7959 146.279 20.7959 146.451 20.999C146.554 21.1203 146.585 21.3003 146.546 21.5491ZM152.175 21.5264H151.237C151.157 21.5264 151.088 21.5853 151.076 21.6653L151.034 21.9296L150.968 21.8338C150.766 21.5368 150.313 21.4376 149.861 21.4376C148.824 21.4376 147.939 22.2286 147.767 23.3382C147.677 23.8916 147.805 24.4208 148.116 24.7899C148.402 25.1293 148.811 25.2707 149.297 25.2707C150.132 25.2707 150.596 24.7295 150.596 24.7295L150.554 24.9923C150.538 25.0927 150.615 25.1827 150.715 25.1827H151.56C151.694 25.1827 151.807 25.0845 151.828 24.951L152.335 21.7163C152.351 21.6169 152.275 21.5264 152.175 21.5264ZM150.867 23.3658C150.777 23.9058 150.352 24.2682 149.809 24.2682C149.537 24.2682 149.319 24.1802 149.18 24.0134C149.041 23.8478 148.988 23.612 149.032 23.3495C149.117 22.8141 149.549 22.4398 150.083 22.4398C150.35 22.4398 150.566 22.5289 150.709 22.6971C150.852 22.8671 150.908 23.1044 150.867 23.3658ZM156.227 21.5263H157.17C157.302 21.5263 157.379 21.6755 157.304 21.7846L154.169 26.344C154.118 26.4178 154.035 26.4617 153.945 26.4617H153.004C152.872 26.4617 152.794 26.3114 152.871 26.202L153.847 24.8138L152.809 21.7439C152.773 21.6372 152.851 21.5263 152.964 21.5263H153.89C154.01 21.5263 154.116 21.6058 154.151 21.7219L154.702 23.5761L156.002 21.6465C156.053 21.5713 156.137 21.5263 156.227 21.5263Z" fill="#253B80"/>
<path fill-rule="evenodd" clip-rule="evenodd" d="M166.445 24.9931L167.249 19.8399C167.261 19.7598 167.33 19.7009 167.41 19.7007H168.314C168.414 19.7007 168.491 19.791 168.475 19.8909L167.683 24.9514C167.662 25.0849 167.548 25.1831 167.414 25.1831H166.606C166.506 25.1831 166.429 25.093 166.445 24.9931ZM160.289 19.7009H158.33C158.197 19.7009 158.083 19.7991 158.062 19.9323L157.27 24.9931C157.254 25.093 157.331 25.1831 157.431 25.1831H158.436C158.529 25.1831 158.609 25.1144 158.624 25.0209L158.848 23.5865C158.869 23.4527 158.983 23.3547 159.117 23.3547H159.737C161.027 23.3547 161.771 22.7255 161.966 21.479C162.054 20.9336 161.97 20.505 161.716 20.2048C161.438 19.8754 160.945 19.7009 160.289 19.7009ZM160.515 21.5494C160.408 22.2575 159.871 22.2575 159.352 22.2575H159.057L159.264 20.935C159.277 20.855 159.345 20.7962 159.425 20.7962H159.561C159.914 20.7962 160.248 20.7962 160.42 20.9993C160.523 21.1206 160.554 21.3006 160.515 21.5494ZM166.143 21.5267H165.206C165.125 21.5267 165.057 21.5855 165.045 21.6656L165.003 21.9298L164.937 21.8341C164.734 21.5371 164.282 21.4379 163.83 21.4379C162.794 21.4379 161.909 22.2289 161.736 23.3384C161.647 23.8918 161.774 24.4211 162.085 24.7902C162.372 25.1295 162.78 25.271 163.267 25.271C164.102 25.271 164.565 24.7298 164.565 24.7298L164.523 24.9925C164.507 25.0929 164.584 25.1829 164.685 25.1829H165.529C165.663 25.1829 165.777 25.0847 165.798 24.9513L166.305 21.7166C166.32 21.617 166.244 21.5267 166.143 21.5267ZM164.836 23.3661C164.746 23.906 164.32 24.2684 163.778 24.2684C163.506 24.2684 163.288 24.1804 163.148 24.0136C163.009 23.8481 162.957 23.6122 163.001 23.3496C163.086 22.8142 163.518 22.4401 164.052 22.4401C164.318 22.4401 164.534 22.5292 164.677 22.6974C164.821 22.8674 164.877 23.1046 164.836 23.3661Z" fill="#179BD7"/>
<path d="M153.567 17.8909L153.808 16.3497L153.272 16.3371H150.711L152.491 4.96515C152.496 4.93081 152.514 4.8988 152.54 4.87608C152.567 4.85334 152.6 4.84082 152.635 4.84082H156.954C158.387 4.84082 159.376 5.14144 159.893 5.73478C160.135 6.01314 160.289 6.30401 160.364 6.62411C160.442 6.96 160.444 7.36129 160.367 7.85072L160.362 7.88645V8.20005L160.604 8.3383C160.808 8.44731 160.97 8.5721 161.094 8.71499C161.301 8.95298 161.435 9.25545 161.492 9.61407C161.55 9.98288 161.531 10.4217 161.435 10.9186C161.325 11.4902 161.146 11.9879 160.905 12.3953C160.683 12.7706 160.4 13.0818 160.065 13.3231C159.744 13.5523 159.364 13.7262 158.933 13.8376C158.516 13.947 158.041 14.0023 157.519 14.0023H157.183C156.943 14.0023 156.709 14.0895 156.526 14.2459C156.342 14.4055 156.221 14.6234 156.183 14.8619L156.158 15.0007L155.733 17.7168L155.713 17.8165C155.708 17.8482 155.699 17.864 155.687 17.8746C155.675 17.8843 155.659 17.8909 155.642 17.8909H153.567Z" fill="#253B80"/>
<path d="M160.834 7.92236C160.821 8.0054 160.806 8.0903 160.79 8.1775C160.22 11.1239 158.272 12.1417 155.784 12.1417H154.517C154.212 12.1417 153.956 12.3644 153.909 12.6668L153.26 16.8125L153.076 17.9875C153.045 18.186 153.197 18.3652 153.396 18.3652H155.643C155.909 18.3652 156.135 18.1703 156.177 17.9059L156.199 17.7908L156.623 15.0852L156.65 14.9369C156.691 14.6715 156.918 14.4766 157.184 14.4766H157.52C159.697 14.4766 161.401 13.5859 161.899 11.0083C162.107 9.93159 162 9.03251 161.449 8.40019C161.282 8.20952 161.076 8.05132 160.834 7.92236Z" fill="#179BD7"/>
<path d="M160.238 7.68352C160.151 7.65799 160.061 7.6348 159.969 7.61392C159.877 7.59352 159.782 7.57543 159.684 7.55965C159.343 7.50398 158.968 7.47754 158.567 7.47754H155.183C155.099 7.47754 155.02 7.49656 154.949 7.53089C154.793 7.6065 154.677 7.75543 154.649 7.93774L153.929 12.5333L153.908 12.6674C153.956 12.3649 154.212 12.1422 154.516 12.1422H155.783C158.272 12.1422 160.22 11.1239 160.789 8.17805C160.806 8.09083 160.821 8.00593 160.834 7.9229C160.69 7.84589 160.534 7.78001 160.365 7.72387C160.324 7.70996 160.281 7.69651 160.238 7.68352Z" fill="#222D65"/>
<path d="M154.649 7.93792C154.677 7.75559 154.793 7.60668 154.949 7.53152C155.02 7.49719 155.099 7.47818 155.182 7.47818H158.567C158.968 7.47818 159.342 7.50461 159.684 7.56028C159.781 7.57606 159.876 7.59416 159.969 7.61456C160.061 7.63545 160.151 7.65864 160.238 7.68415C160.281 7.69714 160.324 7.71059 160.365 7.72405C160.534 7.78018 160.69 7.84653 160.834 7.92307C161.003 6.83426 160.832 6.09292 160.248 5.42162C159.604 4.6826 158.442 4.36621 156.954 4.36621H152.636C152.332 4.36621 152.073 4.58889 152.026 4.89183L150.227 16.3807C150.192 16.6081 150.366 16.8132 150.593 16.8132H153.259L153.929 12.5335L154.649 7.93792Z" fill="#253B80"/>
</svg>
